<svg xmlns="http://www.w3.org/2000/svg" xmlns:xlink="http://www.w3.org/1999/xlink" viewBox="0 0 133.88 107.6"><defs><style>.cls-1{fill:url(#Dégradé_sans_nom_37);}.cls-2{fill:url(#Dégradé_sans_nom_37-2);}.cls-3{fill:url(#Dégradé_sans_nom_37-3);}.cls-4{fill:url(#Dégradé_sans_nom_37-4);}.cls-5{fill:url(#Dégradé_sans_nom_37-5);}.cls-6{fill:url(#Dégradé_sans_nom_37-7);}.cls-7{fill:url(#Dégradé_sans_nom_37-8);}.cls-8{fill:url(#Dégradé_sans_nom_37-9);}.cls-9{fill:url(#Dégradé_sans_nom_37-10);}.cls-10{fill:none;stroke:#951b81;stroke-miterlimit:10;}</style><linearGradient id="Dégradé_sans_nom_37" x1="-5.88" y1="204.9" x2="42.11" y2="204.9" gradientTransform="matrix(-1.01, -0.06, -0.06, -0.94, 74.69, 262.28)" gradientUnits="userSpaceOnUse"><stop offset="0" stop-color="#fff"/><stop offset="0.05" stop-color="#f6ebf4"/><stop offset="0.19" stop-color="#dcb4d6"/><stop offset="0.33" stop-color="#c685bc"/><stop offset="0.47" stop-color="#b55fa7"/><stop offset="0.61" stop-color="#a74196"/><stop offset="0.74" stop-color="#9d2c8a"/><stop offset="0.88" stop-color="#971f83"/><stop offset="1" stop-color="#951b81"/></linearGradient><linearGradient id="Dégradé_sans_nom_37-2" x1="63.36" y1="64.6" x2="113.45" y2="64.6" gradientTransform="matrix(0.98, -0.02, -0.02, 0.96, 5.86, 8.2)" xlink:href="#Dégradé_sans_nom_37"/><linearGradient id="Dégradé_sans_nom_37-3" x1="55" y1="52.87" x2="78.88" y2="52.87" gradientTransform="matrix(1, 0, 0, 1, 0, 0)" xlink:href="#Dégradé_sans_nom_37"/><linearGradient id="Dégradé_sans_nom_37-4" x1="62.06" y1="54.04" x2="87.12" y2="54.04" gradientTransform="matrix(1, 0, 0, 1, 0, 0)" xlink:href="#Dégradé_sans_nom_37"/><linearGradient id="Dégradé_sans_nom_37-5" x1="51.46" y1="171.39" x2="76.51" y2="171.39" gradientTransform="translate(124.97 225.25) rotate(180)" xlink:href="#Dégradé_sans_nom_37"/><linearGradient id="Dégradé_sans_nom_37-7" x1="19.37" y1="187.08" x2="58.5" y2="187.08" gradientTransform="translate(87.39 248.42) rotate(180)" xlink:href="#Dégradé_sans_nom_37"/><linearGradient id="Dégradé_sans_nom_37-8" x1="66.11" y1="61.35" x2="105.24" y2="61.35" gradientTransform="matrix(1, 0, 0, 1, 0, 0)" xlink:href="#Dégradé_sans_nom_37"/><linearGradient id="Dégradé_sans_nom_37-9" x1="33.89" y1="177.45" x2="63.44" y2="177.45" gradientTransform="translate(101.98 234.19) rotate(180)" xlink:href="#Dégradé_sans_nom_37"/><linearGradient id="Dégradé_sans_nom_37-10" x1="66.11" y1="56.75" x2="95.74" y2="56.75" gradientTransform="matrix(1, 0, 0, 1, 0, 0)" xlink:href="#Dégradé_sans_nom_37"/></defs><g id="Calque_2" data-name="Calque 2"><g id="Calque_1-2" data-name="Calque 1"><path class="cls-1" d="M48.53,60.3c13.24,7.91,19.56,21.63,19.56,21.63s-16.93,5.76-30.17-2.15S18,55,18,55,35.3,52.39,48.53,60.3Z"/><path class="cls-2" d="M95.89,78.2C108.38,70.69,116,55.83,116,55.83S97.12,50.19,84.63,57.7,66.42,82.28,66.42,82.28,83.41,85.71,95.89,78.2Z"/><path class="cls-3" d="M78.88,53c0,15.21-11.94,28.83-11.94,28.83S55,68.19,55,53s11.94-29,11.94-29S78.88,37.76,78.88,53Z"/><path class="cls-4" d="M63.06,51.32C66.83,36.62,81.73,26.7,81.73,26.7s8.17,16.39,4.4,31.09S67.38,81.38,67.38,81.38,59.3,66,63.06,51.32Z"/><path class="cls-5" d="M72.52,50.73c3.76,14.7-4.4,31.08-4.4,31.08s-14.9-9.92-18.67-24.62S53.8,25.9,53.8,25.9,68.75,36,72.52,50.73Z"/><path class="cls-4" d="M86.13,57.79c3.77-14.7-4.4-31.09-4.4-31.09s-14.9,9.92-18.67,24.62,4.32,30.06,4.32,30.06S82.37,72.49,86.13,57.79Z"/><path class="cls-6" d="M56.83,52.44C46.54,41.68,28.89,40.88,28.89,40.88s.76,18.46,11,29.22S68,81.81,68,81.81,67.11,63.2,56.83,52.44Z"/><path class="cls-7" d="M94.05,70.25C83.76,81,66.11,81.81,66.11,81.81s.76-18.46,11-29.22,28.08-11.71,28.08-11.71S104.33,59.5,94.05,70.25Z"/><path class="cls-8" d="M63.6,50.41C56.32,37.23,39.47,31.69,39.47,31.69S35.85,49.6,42.91,62.9C49.24,74.82,67,81.67,67.14,81.81S70.87,63.59,63.6,50.41Z"/><path class="cls-9" d="M91.24,63.09C84,76.26,67.12,81.81,67.12,81.81s-3.83-18,3.44-31.21S94.79,31.69,94.79,31.69,98.52,49.91,91.24,63.09Z"/><ellipse class="cls-10" cx="67.1" cy="53.68" rx="60.86" ry="47.55"/><ellipse class="cls-10" cx="66.94" cy="53.8" rx="66.44" ry="53.3"/></g></g></svg>