<svg xmlns="http://www.w3.org/2000/svg" xmlns:xlink="http://www.w3.org/1999/xlink" viewBox="0 0 144 86.54"><defs><style>.cls-1{fill:url(#Dégradé_sans_nom_21);}.cls-2{fill:url(#Dégradé_sans_nom_21-2);}.cls-3{fill:url(#Dégradé_sans_nom_21-3);}.cls-4{fill:url(#Dégradé_sans_nom_21-4);}.cls-5{fill:url(#Dégradé_sans_nom_21-5);}</style><linearGradient id="Dégradé_sans_nom_21" x1="53.95" y1="42.4" x2="86.32" y2="42.4" gradientUnits="userSpaceOnUse"><stop offset="0" stop-color="#fff"/><stop offset="0.01" stop-color="#fef9fb"/><stop offset="0.15" stop-color="#f8c2dd"/><stop offset="0.29" stop-color="#f393c3"/><stop offset="0.42" stop-color="#ef6dae"/><stop offset="0.56" stop-color="#eb4f9d"/><stop offset="0.69" stop-color="#e93a91"/><stop offset="0.81" stop-color="#e72d8a"/><stop offset="0.93" stop-color="#e72988"/></linearGradient><linearGradient id="Dégradé_sans_nom_21-2" x1="43.3" y1="68.25" x2="76" y2="68.25" gradientTransform="matrix(0.87, 0.5, 0.5, -0.87, 8.24, 76.7)" xlink:href="#Dégradé_sans_nom_21"/><linearGradient id="Dégradé_sans_nom_21-3" x1="12.62" y1="37.01" x2="45.97" y2="37.01" gradientTransform="matrix(0.5, 0.87, 0.87, -0.5, 61.2, 57.73)" xlink:href="#Dégradé_sans_nom_21"/><linearGradient id="Dégradé_sans_nom_21-4" x1="76.66" y1="-35.04" x2="110.01" y2="-35.04" gradientTransform="translate(19.51 162.77) rotate(-60)" xlink:href="#Dégradé_sans_nom_21"/><linearGradient id="Dégradé_sans_nom_21-5" x1="127.04" y1="145.2" x2="159.75" y2="145.2" gradientTransform="matrix(0.87, -0.5, -0.5, -0.87, -0.77, 245.1)" xlink:href="#Dégradé_sans_nom_21"/></defs><g id="Calque_2" data-name="Calque 2"><g id="Calque_1-2" data-name="Calque 1"><path class="cls-1" d="M86.32,42.1c0,23.79-14.62,42.69-14.62,42.69C70.13,84.79,54,65.89,54,42.1S69.1,0,69.1,0,86.32,18.32,86.32,42.1Z"/><path class="cls-2" d="M107.9,56.07c11.44-20.59,7.88-44.56,7.88-44.56-1.36-.82-24.47,7.14-35.91,27.74s-7.13,44.34-7.13,44.34S96.46,76.67,107.9,56.07Z"/><path class="cls-3" d="M115.75,79.3C135.56,67.41,144,44.8,144,44.8c-.78-1.41-24.62-6.53-44.44,5.36s-27.5,34.69-27.5,34.69S95.93,91.2,115.75,79.3Z"/><path class="cls-4" d="M43.69,49.71C63.5,61.6,71.94,84.21,71.94,84.21c-.78,1.41-24.62,6.53-44.44-5.36S0,44.15,0,44.15,23.87,37.81,43.69,49.71Z"/><path class="cls-5" d="M65,39.5C53.54,18.9,31.79,10.13,31.79,10.13c-1.36.81-6.29,25.6,5.15,46.2S70.32,84.91,70.32,84.91,76.42,60.1,65,39.5Z"/></g></g></svg>