<svg xmlns="http://www.w3.org/2000/svg" xmlns:xlink="http://www.w3.org/1999/xlink" viewBox="0 0 146.95 91"><defs><style>.cls-1{fill:url(#Dégradé_sans_nom_30);}.cls-2{fill:url(#Dégradé_sans_nom_30-2);}.cls-3{fill:url(#Dégradé_sans_nom_30-3);}.cls-4{fill:url(#Dégradé_sans_nom_30-4);}.cls-5{fill:url(#Dégradé_sans_nom_30-5);}.cls-6{fill:url(#Dégradé_sans_nom_30-6);}.cls-7{fill:url(#Dégradé_sans_nom_30-7);}.cls-8{fill:url(#Dégradé_sans_nom_30-8);}.cls-9{fill:url(#Dégradé_sans_nom_30-9);}.cls-10{fill:url(#Dégradé_sans_nom_30-10);}.cls-11{fill:url(#Dégradé_sans_nom_30-11);}</style><linearGradient id="Dégradé_sans_nom_30" x1="115.03" y1="97.79" x2="153.01" y2="97.79" gradientTransform="translate(188.74 0.29) rotate(120)" gradientUnits="userSpaceOnUse"><stop offset="0" stop-color="#fff"/><stop offset="0.02" stop-color="#f9fdfe"/><stop offset="0.19" stop-color="#cbecf6"/><stop offset="0.36" stop-color="#a5ddef"/><stop offset="0.52" stop-color="#87d2ea"/><stop offset="0.69" stop-color="#72cae6"/><stop offset="0.85" stop-color="#65c6e4"/><stop offset="1" stop-color="#61c4e3"/></linearGradient><linearGradient id="Dégradé_sans_nom_30-2" x1="149.33" y1="-37.31" x2="187.3" y2="-37.31" gradientTransform="matrix(0.5, 0.87, 0.87, -0.5, 56.41, -97.62)" xlink:href="#Dégradé_sans_nom_30"/><linearGradient id="Dégradé_sans_nom_30-3" x1="55.2" y1="44.77" x2="91.02" y2="44.77" gradientTransform="matrix(1, 0, 0, 1, 0, 0)" xlink:href="#Dégradé_sans_nom_30"/><linearGradient id="Dégradé_sans_nom_30-4" x1="79.03" y1="73.23" x2="115.6" y2="73.23" gradientTransform="translate(46.47 -61.3) rotate(30)" xlink:href="#Dégradé_sans_nom_30"/><linearGradient id="Dégradé_sans_nom_30-5" x1="167.33" y1="39.67" x2="203.35" y2="39.67" gradientTransform="translate(253.55 132.94) rotate(-165)" xlink:href="#Dégradé_sans_nom_30"/><linearGradient id="Dégradé_sans_nom_30-6" x1="282.08" y1="98.27" x2="318.09" y2="98.27" gradientTransform="translate(379.51 63.55) rotate(165)" xlink:href="#Dégradé_sans_nom_30"/><linearGradient id="Dégradé_sans_nom_30-7" x1="19.8" y1="27.63" x2="55.82" y2="27.63" gradientTransform="matrix(0.97, 0.26, 0.26, -0.97, 41.12, 63.55)" xlink:href="#Dégradé_sans_nom_30"/><linearGradient id="Dégradé_sans_nom_30-8" x1="-80.8" y1="97.13" x2="-43.52" y2="97.13" gradientTransform="translate(213.85 33.15) rotate(45)" xlink:href="#Dégradé_sans_nom_30"/><linearGradient id="Dégradé_sans_nom_30-9" x1="52.18" y1="-35.85" x2="89.47" y2="-35.85" gradientTransform="matrix(-0.71, 0.71, 0.71, 0.71, 120.82, 33.15)" xlink:href="#Dégradé_sans_nom_30"/><linearGradient id="Dégradé_sans_nom_30-10" x1="203.18" y1="1.54" x2="239.76" y2="1.54" gradientTransform="matrix(-0.87, 0.5, 0.5, 0.87, 243.74, -61.3)" xlink:href="#Dégradé_sans_nom_30"/><linearGradient id="Dégradé_sans_nom_30-11" x1="-77.79" y1="163" x2="-41.21" y2="163" gradientTransform="translate(227.54 -61.3) rotate(30)" xlink:href="#Dégradé_sans_nom_30"/></defs><g id="Calque_2" data-name="Calque 2"><g id="Calque_1-2" data-name="Calque 1"><path class="cls-1" d="M26.85,83.47C8,71.7,0,49.56,0,49.56S25.86,38.24,44.76,50s27.11,39.2,27.11,39.2S45.74,95.24,26.85,83.47Z"/><path class="cls-2" d="M116.89,83.72C135.78,72,147,48.15,147,48.15s-29.07-9.67-48,2.1-27.11,39.2-27.11,39.2S98,95.49,116.89,83.72Z"/><path class="cls-3" d="M91,44.93c0,23.54-17.91,44.61-17.91,44.61S55.2,68.47,55.2,44.93,73.11,0,73.11,0,91,21.39,91,44.93Z"/><path class="cls-4" d="M109.56,60.57c-10.91,20.38-36.18,29-36.18,29s-5.74-27.91,5.16-48.29S114.88,12,114.88,12,120.47,40.18,109.56,60.57Z"/><path class="cls-5" d="M67.3,42.37C73,19.63,95.3,4.29,95.3,4.29s12.24,25.35,6.59,48.08S73.77,88.88,73.77,88.88,61.65,65.11,67.3,42.37Z"/><path class="cls-6" d="M46.88,51.13c-5.65-22.73,6.6-48.08,6.6-48.08s22.35,15.35,28,38.08S75,89.54,75,89.54,52.53,73.87,46.88,51.13Z"/><path class="cls-7" d="M101.89,52.37C107.54,29.64,95.3,4.29,95.3,4.29S73,19.63,67.3,42.37s6.47,46.51,6.47,46.51S96.25,75.11,101.89,52.37Z"/><path class="cls-8" d="M113.76,71.66C98.34,88.3,71.87,89.54,71.87,89.54S73,61,88.44,44.34s42.11-18.12,42.11-18.12S129.19,55,113.76,71.66Z"/><path class="cls-9" d="M32.84,71.66C48.27,88.3,74.73,89.54,74.73,89.54S73.59,61,58.16,44.34,16.05,26.22,16.05,26.22,17.41,55,32.84,71.66Z"/><path class="cls-10" d="M37.28,60.57c10.91,20.38,36.18,29,36.18,29s5.42-27.71-5.17-48.29C58.81,22.8,32.12,12.21,32,12,32,12,26.37,40.18,37.28,60.57Z"/><path class="cls-11" d="M110,59.91c-10.91,20.38-36.18,29-36.18,29s-5.42-27.71,5.17-48.29c9.48-18.45,36.17-29,36.33-29.26C115.27,11.33,120.86,39.52,110,59.91Z"/></g></g></svg>