<svg xmlns="http://www.w3.org/2000/svg" xmlns:xlink="http://www.w3.org/1999/xlink" viewBox="0 0 164.43 112.03"><defs><style>.cls-1{fill:#6ab96f;}.cls-2{fill:url(#Dégradé_sans_nom_21);}.cls-3{fill:url(#Dégradé_sans_nom_21-2);}.cls-4{fill:url(#Dégradé_sans_nom_21-3);}.cls-5{fill:url(#Dégradé_sans_nom_21-4);}.cls-6{fill:url(#Dégradé_sans_nom_21-5);}.cls-7{fill:url(#Dégradé_sans_nom_21-6);}.cls-8{fill:url(#Dégradé_sans_nom_21-7);}.cls-9{fill:url(#Dégradé_sans_nom_21-8);}.cls-10{fill:url(#Dégradé_sans_nom_21-9);}.cls-11{fill:url(#Dégradé_sans_nom_21-10);}.cls-12{fill:url(#Dégradé_sans_nom_21-11);}.cls-13{fill:url(#Dégradé_sans_nom_21-12);}.cls-14{fill:url(#Dégradé_sans_nom_21-13);}</style><linearGradient id="Dégradé_sans_nom_21" x1="63.09" y1="43.31" x2="95.46" y2="43.31" gradientUnits="userSpaceOnUse"><stop offset="0" stop-color="#fff"/><stop offset="0.01" stop-color="#fef9fb"/><stop offset="0.15" stop-color="#f8c2dd"/><stop offset="0.29" stop-color="#f393c3"/><stop offset="0.42" stop-color="#ef6dae"/><stop offset="0.56" stop-color="#eb4f9d"/><stop offset="0.69" stop-color="#e93a91"/><stop offset="0.81" stop-color="#e72d8a"/><stop offset="0.93" stop-color="#e72988"/></linearGradient><linearGradient id="Dégradé_sans_nom_21-2" x1="49.8" y1="102.57" x2="82.51" y2="102.57" gradientTransform="matrix(0.68, 0.73, 0.74, -0.69, -9.16, 78.17)" xlink:href="#Dégradé_sans_nom_21"/><linearGradient id="Dégradé_sans_nom_21-3" x1="38.86" y1="29.28" x2="71.57" y2="29.28" gradientTransform="matrix(0.68, -0.73, 0.74, 0.69, -9.16, 78.83)" xlink:href="#Dégradé_sans_nom_21"/><linearGradient id="Dégradé_sans_nom_21-4" x1="41.54" y1="106.69" x2="74.24" y2="106.69" gradientTransform="matrix(0.88, 0.47, 0.47, -0.89, 0.15, 117.36)" xlink:href="#Dégradé_sans_nom_21"/><linearGradient id="Dégradé_sans_nom_21-5" x1="75.7" y1="46.06" x2="109.04" y2="46.06" gradientTransform="matrix(0, -0.92, 0.91, 0, 75.21, 170)" xlink:href="#Dégradé_sans_nom_21"/><linearGradient id="Dégradé_sans_nom_21-6" x1="31.86" y1="57.12" x2="65.2" y2="57.12" gradientTransform="matrix(-0.24, 0.89, -0.87, -0.24, 178.73, 66.06)" xlink:href="#Dégradé_sans_nom_21"/><linearGradient id="Dégradé_sans_nom_21-7" x1="32.34" y1="127.83" x2="65.69" y2="127.83" gradientTransform="matrix(0, 0.92, 0.91, 0, -71.92, 32.46)" xlink:href="#Dégradé_sans_nom_21"/><linearGradient id="Dégradé_sans_nom_21-8" x1="13.68" y1="-22.7" x2="47.03" y2="-22.7" gradientTransform="matrix(0.23, 0.97, 0.93, -0.22, 57.16, 58.53)" xlink:href="#Dégradé_sans_nom_21"/><linearGradient id="Dégradé_sans_nom_21-9" x1="131.78" y1="148.2" x2="164.49" y2="148.2" gradientTransform="matrix(-0.87, 0.5, 0.5, 0.87, 114.03, -153.21)" xlink:href="#Dégradé_sans_nom_21"/><linearGradient id="Dégradé_sans_nom_21-10" x1="128.56" y1="146.43" x2="161.26" y2="146.43" gradientTransform="matrix(-0.96, 0.28, 0.28, 0.96, 163.7, -136.75)" xlink:href="#Dégradé_sans_nom_21"/><linearGradient id="Dégradé_sans_nom_21-11" x1="137.13" y1="143.89" x2="169.84" y2="143.89" gradientTransform="translate(-15.25 -136.75) rotate(16.49)" xlink:href="#Dégradé_sans_nom_21"/><linearGradient id="Dégradé_sans_nom_21-12" x1="72.99" y1="-1.11" x2="106.33" y2="-1.11" gradientTransform="matrix(-0.5, 0.87, -0.9, -0.52, 87.62, -12.67)" xlink:href="#Dégradé_sans_nom_21"/><linearGradient id="Dégradé_sans_nom_21-13" x1="5.94" y1="66.13" x2="39.29" y2="66.13" gradientTransform="matrix(0.5, 0.87, 0.88, -0.51, 48.16, 80.07)" xlink:href="#Dégradé_sans_nom_21"/></defs><g id="Calque_2" data-name="Calque 2"><g id="Calque_1-2" data-name="Calque 1"><ellipse class="cls-1" cx="82.21" cy="85.64" rx="82.21" ry="16.05"/><path class="cls-2" d="M95.46,43c0,24.29-14.62,43.6-14.62,43.6-1.57,0-17.75-19.31-17.75-43.6S78.24,0,78.24,0,95.46,18.71,95.46,43Z"/><path class="cls-3" d="M122.31,68.51C139.43,52.05,143.16,28,143.16,28c-1.06-1.18-25.6-.25-42.71,16.21S80.39,84.72,80.39,84.72,105.2,85,122.31,68.51Z"/><path class="cls-4" d="M60.79,46.17C77.9,62.63,81.63,86.69,81.63,86.69c-1.06,1.18-25.59.25-42.71-16.21S18.86,30,18.86,30,43.67,29.7,60.79,46.17Z"/><path class="cls-5" d="M115.71,57.36C126.43,36.17,122,12.23,122,12.23c-1.39-.77-24.24,8.2-35,29.39S81.47,86.5,81.47,86.5,105,78.55,115.71,57.36Z"/><path class="cls-6" d="M116.42,69.79c20.93.36,37.79,14.47,37.79,14.47,0,1.49-16.36,16.52-37.29,16.16s-37.28-15-37.28-15S95.49,69.43,116.42,69.79Z"/><path class="cls-7" d="M113.5,110.34C93.41,104.47,80.87,86.4,80.87,86.4,81.24,85,101,74.79,121.1,80.66s32,24.28,32,24.28S133.59,116.21,113.5,110.34Z"/><path class="cls-8" d="M43.36,92.82c20.93-.36,37.79-14.48,37.79-14.48,0-1.48-16.36-16.51-37.29-16.15s-37.28,15-37.28,15S22.43,93.18,43.36,92.82Z"/><path class="cls-9" d="M46.34,109.44c21.48-5.51,35.29-24.59,35.29-24.59-.35-1.58-21-13.47-42.49-8s-34.64,25-34.64,25S24.87,115,46.34,109.44Z"/><path class="cls-10" d="M45.67,57.36C57.11,78,78.86,86.73,78.86,86.73c1.36-.81,6.29-25.6-5.15-46.2S40.33,12,40.33,12,34.23,36.76,45.67,57.36Z"/><path class="cls-11" d="M50.66,49.43C57,72.13,76.07,85.74,76.07,85.74c1.51-.48,12.09-23.43,5.77-46.13S56.07,4,56.07,4,44.34,26.72,50.66,49.43Z"/><path class="cls-12" d="M106.75,49.43c-6.32,22.7-25.41,36.31-25.41,36.31-1.52-.48-12.09-23.43-5.78-46.13S101.34,4,101.34,4,113.06,26.72,106.75,49.43Z"/><path class="cls-13" d="M36,80.28C15.33,67.91,6.23,44.92,6.23,44.92c.78-1.41,25.26-6.16,45.9,6.21s29,35.53,29,35.53S56.6,92.64,36,80.28Z"/><path class="cls-14" d="M125.39,80.84C145.49,68.78,154.16,46,154.16,46c-.79-1.42-24.85-6.41-44.95,5.65s-28,35-28,35S105.29,92.89,125.39,80.84Z"/></g></g></svg>