<svg xmlns="http://www.w3.org/2000/svg" xmlns:xlink="http://www.w3.org/1999/xlink" viewBox="0 0 173.43 117.34"><defs><style>.cls-1{fill:#6ab96f;}.cls-2{fill:url(#Dégradé_sans_nom_30);}.cls-3{fill:url(#Dégradé_sans_nom_30-2);}.cls-4{fill:url(#Dégradé_sans_nom_30-3);}.cls-5{fill:url(#Dégradé_sans_nom_30-4);}.cls-6{fill:url(#Dégradé_sans_nom_30-5);}.cls-7{fill:url(#Dégradé_sans_nom_30-6);}.cls-8{fill:url(#Dégradé_sans_nom_30-7);}.cls-9{fill:url(#Dégradé_sans_nom_30-8);}.cls-10{fill:url(#Dégradé_sans_nom_30-9);}.cls-11{fill:url(#Dégradé_sans_nom_30-10);}.cls-12{fill:url(#Dégradé_sans_nom_30-11);}.cls-13{fill:url(#Dégradé_sans_nom_30-12);}.cls-14{fill:url(#Dégradé_sans_nom_30-13);}.cls-15{fill:url(#Dégradé_sans_nom_30-14);}.cls-16{fill:url(#Dégradé_sans_nom_30-15);}.cls-17{fill:url(#Dégradé_sans_nom_30-16);}</style><linearGradient id="Dégradé_sans_nom_30" x1="128.2" y1="97.79" x2="166.17" y2="97.79" gradientTransform="translate(208.49 -11.11) rotate(120)" gradientUnits="userSpaceOnUse"><stop offset="0" stop-color="#fff"/><stop offset="0.02" stop-color="#f9fdfe"/><stop offset="0.19" stop-color="#cbecf6"/><stop offset="0.36" stop-color="#a5ddef"/><stop offset="0.52" stop-color="#87d2ea"/><stop offset="0.69" stop-color="#72cae6"/><stop offset="0.85" stop-color="#65c6e4"/><stop offset="1" stop-color="#61c4e3"/></linearGradient><linearGradient id="Dégradé_sans_nom_30-2" x1="68.37" y1="44.77" x2="104.18" y2="44.77" gradientTransform="matrix(1, 0, 0, 1, 0, 0)" xlink:href="#Dégradé_sans_nom_30"/><linearGradient id="Dégradé_sans_nom_30-3" x1="162.5" y1="-37.31" x2="200.47" y2="-37.31" gradientTransform="matrix(0.5, 0.87, 0.87, -0.5, 62.99, -109.02)" xlink:href="#Dégradé_sans_nom_30"/><linearGradient id="Dégradé_sans_nom_30-4" x1="92.2" y1="73.23" x2="128.76" y2="73.23" gradientTransform="translate(48.23 -67.89) rotate(30)" xlink:href="#Dégradé_sans_nom_30"/><linearGradient id="Dégradé_sans_nom_30-5" x1="222.35" y1="-1.92" x2="258.92" y2="-1.92" gradientTransform="matrix(-0.87, 0.5, 0.5, 0.87, 275, -67.89)" xlink:href="#Dégradé_sans_nom_30"/><linearGradient id="Dégradé_sans_nom_30-6" x1="81.22" y1="85.89" x2="117.78" y2="85.89" gradientTransform="translate(48.23 -67.89) rotate(30)" xlink:href="#Dégradé_sans_nom_30"/><linearGradient id="Dégradé_sans_nom_30-7" x1="180.5" y1="39.67" x2="216.51" y2="39.67" gradientTransform="translate(279.43 136.35) rotate(-165)" xlink:href="#Dégradé_sans_nom_30"/><linearGradient id="Dégradé_sans_nom_30-8" x1="295.24" y1="98.27" x2="331.26" y2="98.27" gradientTransform="translate(405.4 60.14) rotate(165)" xlink:href="#Dégradé_sans_nom_30"/><linearGradient id="Dégradé_sans_nom_30-9" x1="32.97" y1="27.63" x2="68.99" y2="27.63" gradientTransform="matrix(0.97, 0.26, 0.26, -0.97, 41.57, 60.14)" xlink:href="#Dégradé_sans_nom_30"/><linearGradient id="Dégradé_sans_nom_30-10" x1="33.18" y1="28.11" x2="69.2" y2="28.11" gradientTransform="matrix(0.97, 0.26, 0.26, -0.97, 41.57, 60.14)" xlink:href="#Dégradé_sans_nom_30"/><linearGradient id="Dégradé_sans_nom_30-11" x1="183.62" y1="23.43" x2="220.2" y2="23.43" gradientTransform="translate(67.38 -118.4) rotate(90)" xlink:href="#Dégradé_sans_nom_30"/><linearGradient id="Dégradé_sans_nom_30-12" x1="-99.42" y1="184.75" x2="-62.83" y2="184.75" gradientTransform="translate(-55.28 3.79) rotate(-90)" xlink:href="#Dégradé_sans_nom_30"/><linearGradient id="Dégradé_sans_nom_30-13" x1="-41.06" y1="113.13" x2="-4.48" y2="113.13" gradientTransform="matrix(-0.4, 0.69, -0.65, -0.37, 178.42, 158.3)" xlink:href="#Dégradé_sans_nom_30"/><linearGradient id="Dégradé_sans_nom_30-14" x1="260.05" y1="-30.49" x2="296.63" y2="-30.49" gradientTransform="matrix(0.3, 0.65, 0.73, -0.34, -4.64, -90.13)" xlink:href="#Dégradé_sans_nom_30"/><linearGradient id="Dégradé_sans_nom_30-15" x1="-67.64" y1="97.13" x2="-30.35" y2="97.13" gradientTransform="translate(217.71 23.84) rotate(45)" xlink:href="#Dégradé_sans_nom_30"/><linearGradient id="Dégradé_sans_nom_30-16" x1="65.35" y1="-35.85" x2="102.64" y2="-35.85" gradientTransform="matrix(-0.71, 0.71, 0.71, 0.71, 143.3, 23.84)" xlink:href="#Dégradé_sans_nom_30"/></defs><g id="Calque_2" data-name="Calque 2"><g id="Calque_1-2" data-name="Calque 1"><ellipse class="cls-1" cx="85.95" cy="99.56" rx="82.21" ry="16.05"/><path class="cls-2" d="M40,83.47C21.12,71.7,13.17,49.56,13.17,49.56S39,38.24,57.92,50,85,89.21,85,89.21,58.91,95.24,40,83.47Z"/><path class="cls-3" d="M104.18,44.93c0,23.54-17.9,44.61-17.9,44.61S68.37,68.47,68.37,44.93,86.28,0,86.28,0,104.18,21.39,104.18,44.93Z"/><path class="cls-4" d="M130.06,83.72C149,72,160.11,48.15,160.11,48.15s-29.07-9.67-48,2.1S85,89.45,85,89.45,111.16,95.49,130.06,83.72Z"/><path class="cls-5" d="M122.73,60.57c-10.91,20.38-36.18,29-36.18,29S80.8,61.63,91.71,41.25,128,12,128,12,133.64,40.18,122.73,60.57Z"/><path class="cls-6" d="M50.22,60.57c10.91,20.38,36.18,29,36.18,29s5.75-27.91-5.16-48.29S44.91,12,44.91,12,39.31,40.18,50.22,60.57Z"/><path class="cls-7" d="M106.89,66C96,86.43,70.71,95,70.71,95S65,67.11,75.87,46.72,112.2,17.47,112.2,17.47,117.79,45.66,106.89,66Z"/><path class="cls-8" d="M80.47,42.37c5.64-22.74,28-38.08,28-38.08s12.25,25.35,6.6,48.08S86.94,88.88,86.94,88.88,74.82,65.11,80.47,42.37Z"/><path class="cls-9" d="M60.05,51.13C54.4,28.4,66.64,3.05,66.64,3.05S89,18.4,94.64,41.13s-6.52,48.41-6.52,48.41S65.69,73.87,60.05,51.13Z"/><path class="cls-10" d="M115.06,52.37c5.65-22.73-6.6-48.08-6.6-48.08s-22.35,15.34-28,38.08,6.47,46.51,6.47,46.51S109.41,75.11,115.06,52.37Z"/><path class="cls-11" d="M115.4,52c5.64-22.74-6.6-48.09-6.6-48.09S86.45,19.22,80.8,42s6.47,46.5,6.47,46.5S109.75,74.69,115.4,52Z"/><path class="cls-12" d="M43.18,101.78C20.07,102.53,0,84.93,0,84.93S21.28,66.38,44.4,65.26c20.72-1,43.23,16.81,43.5,16.84C87.9,82.1,66.28,101,43.18,101.78Z"/><path class="cls-13" d="M130.25,66.65c23.11-.74,43.18,16.85,43.18,16.85s-21.29,18.55-44.4,19.67c-20.72,1-43.23-16.81-43.5-16.84C85.53,86.33,107.14,67.4,130.25,66.65Z"/><path class="cls-14" d="M106.61,112.7C91.38,104.6,85.42,85,85.42,85s21.13-4.84,36.51,3c13.78,7,21.24,27.7,21.41,27.82C143.34,115.82,121.84,120.81,106.61,112.7Z"/><path class="cls-15" d="M61.87,112C79,104.7,88.44,86.56,88.44,86.56s-21.09-4.87-38.33,2.17C34.65,95,23.48,114.15,23.29,114.26,23.29,114.26,44.74,119.26,61.87,112Z"/><path class="cls-16" d="M126.93,71.66C111.5,88.3,85,89.54,85,89.54S86.18,61,101.61,44.34s42.11-18.12,42.11-18.12S142.36,55,126.93,71.66Z"/><path class="cls-17" d="M46,71.66C61.43,88.3,87.9,89.54,87.9,89.54S86.76,61,71.33,44.34,29.22,26.22,29.22,26.22,30.58,55,46,71.66Z"/></g></g></svg>