<svg xmlns="http://www.w3.org/2000/svg" xmlns:xlink="http://www.w3.org/1999/xlink" viewBox="0 0 134.25 106.49"><defs><style>.cls-1{fill:url(#Dégradé_sans_nom_46);}.cls-2{fill:url(#Dégradé_sans_nom_46-2);}.cls-3{fill:url(#Dégradé_sans_nom_53);}.cls-4{fill:url(#Dégradé_sans_nom_46-3);}.cls-5{fill:url(#Dégradé_sans_nom_46-4);}.cls-6{fill:url(#Dégradé_sans_nom_46-5);}.cls-7{fill:url(#Dégradé_sans_nom_46-6);}.cls-8{fill:url(#Dégradé_sans_nom_46-7);}.cls-9{fill:url(#Dégradé_sans_nom_46-8);}.cls-10{fill:url(#Dégradé_sans_nom_46-9);}.cls-11{fill:url(#Dégradé_sans_nom_46-10);}.cls-12{fill:url(#Dégradé_sans_nom_46-11);}</style><linearGradient id="Dégradé_sans_nom_46" x1="66.57" y1="19.56" x2="98.26" y2="19.56" gradientTransform="matrix(0.77, 0.35, -0.33, 0.73, 24.44, -3.21)" gradientUnits="userSpaceOnUse"><stop offset="0" stop-color="#fff"/><stop offset="0.04" stop-color="#fefce4"/><stop offset="0.1" stop-color="#fcf8c5"/><stop offset="0.16" stop-color="#fbf4a9"/><stop offset="0.24" stop-color="#faf293"/><stop offset="0.33" stop-color="#f9f082"/><stop offset="0.43" stop-color="#f8ee77"/><stop offset="0.58" stop-color="#f8ed70"/><stop offset="1" stop-color="#f8ed6e"/></linearGradient><linearGradient id="Dégradé_sans_nom_46-2" x1="43.11" y1="46.79" x2="74.8" y2="46.79" gradientTransform="matrix(0.91, -0.42, -0.31, -0.69, 17.06, 95.84)" xlink:href="#Dégradé_sans_nom_46"/><linearGradient id="Dégradé_sans_nom_53" x1="3.41" y1="75.78" x2="131.4" y2="75.78" gradientUnits="userSpaceOnUse"><stop offset="0" stop-color="#fff"/><stop offset="0.01" stop-color="#f7fbf4"/><stop offset="0.06" stop-color="#d9eccb"/><stop offset="0.11" stop-color="#bddea5"/><stop offset="0.16" stop-color="#a5d285"/><stop offset="0.22" stop-color="#91c969"/><stop offset="0.29" stop-color="#81c153"/><stop offset="0.37" stop-color="#75ba42"/><stop offset="0.47" stop-color="#6cb637"/><stop offset="0.61" stop-color="#67b430"/><stop offset="1" stop-color="#66b32e"/></linearGradient><linearGradient id="Dégradé_sans_nom_46-3" x1="83.56" y1="42.1" x2="115.26" y2="42.1" gradientTransform="matrix(1, 0.04, -0.03, 0.83, -29.97, -4.61)" xlink:href="#Dégradé_sans_nom_46"/><linearGradient id="Dégradé_sans_nom_46-4" x1="41.98" y1="-42.34" x2="73.67" y2="-42.34" gradientTransform="matrix(-0.45, 0.78, -0.7, -0.4, 35.09, -8.44)" xlink:href="#Dégradé_sans_nom_46"/><linearGradient id="Dégradé_sans_nom_46-5" x1="228.39" y1="-4.62" x2="260.09" y2="-4.62" gradientTransform="matrix(0, 0.81, -0.82, 0, 97.29, -128.05)" xlink:href="#Dégradé_sans_nom_46"/><linearGradient id="Dégradé_sans_nom_46-6" x1="230.8" y1="77.18" x2="262.5" y2="77.18" gradientTransform="matrix(0, -0.81, 0.82, 0, -29.31, 270.15)" xlink:href="#Dégradé_sans_nom_46"/><linearGradient id="Dégradé_sans_nom_46-7" x1="91.37" y1="-53.46" x2="123.06" y2="-53.46" gradientTransform="matrix(0.4, 0.7, 0.58, -0.33, 32.38, -9.17)" xlink:href="#Dégradé_sans_nom_46"/><linearGradient id="Dégradé_sans_nom_46-8" x1="48.8" y1="-73.96" x2="80.49" y2="-73.96" gradientTransform="matrix(-0.59, 0.55, -0.43, -0.47, 91.24, 17.18)" xlink:href="#Dégradé_sans_nom_46"/><linearGradient id="Dégradé_sans_nom_46-9" x1="91.39" y1="28.11" x2="123.09" y2="28.11" gradientTransform="matrix(0.4, 0.7, 0.71, -0.41, 33.97, -10.09)" xlink:href="#Dégradé_sans_nom_46"/><linearGradient id="Dégradé_sans_nom_46-10" x1="80.7" y1="27.2" x2="112.4" y2="27.2" gradientTransform="matrix(0.57, 0.57, -0.58, 0.58, 52.62, -24.55)" xlink:href="#Dégradé_sans_nom_46"/><linearGradient id="Dégradé_sans_nom_46-11" x1="108.31" y1="93.93" x2="140.01" y2="93.93" gradientTransform="matrix(0.57, -0.57, -0.58, -0.58, 27.06, 171.51)" xlink:href="#Dégradé_sans_nom_46"/></defs><g id="Calque_2" data-name="Calque 2"><g id="Calque_1-2" data-name="Calque 1"><path class="cls-1" d="M93.66,45.62C89,61.65,67.74,70.24,67.74,70.24s-6-19,1.64-35.71S95.3,9.92,95.3,9.92,97.14,33.78,93.66,45.62Z"/><path class="cls-2" d="M70.18,32.79C66.25,17.46,42.91,10.9,42.91,10.9s-8.47,19.25-1.3,34.94S68.88,67.73,68.88,67.73,73.09,44.12,70.18,32.79Z"/><ellipse class="cls-3" cx="67.4" cy="75.78" rx="63.99" ry="25.07"/><path class="cls-4" d="M83.47,35.19c2.09,17.34-17.1,33.91-17.1,33.91S51.31,53,52.09,33.91,69.2,0,69.2,0,81.93,22.37,83.47,35.19Z"/><path class="cls-5" d="M31.67,65.8C16,59.64,9.78,36.85,9.78,36.85s20-4.75,36,4.49S67.68,70.28,67.68,70.28,43.27,70.36,31.67,65.8Z"/><path class="cls-6" d="M101.08,81.66C84.55,83.92,67.92,69,67.92,69s14.84-12.67,33.16-12.67S134.25,69,134.25,69,113.31,80,101.08,81.66Z"/><path class="cls-7" d="M34,58.49c16.95-2.26,34,12.67,34,12.67S52.76,83.84,34,83.84,0,71.16,0,71.16,21.46,60.15,34,58.49Z"/><path class="cls-8" d="M51.06,94.49c13.06-4.94,17.59-24.8,17.59-24.8S51.6,64.9,38.38,72.53s-17.6,24.8-17.6,24.8S41.4,98.14,51.06,94.49Z"/><path class="cls-9" d="M75.66,95.71c-10.59-8.13-8.6-28-8.6-28s17.33.07,27.22,10.77,8.6,28,8.6,28S83.48,101.72,75.66,95.71Z"/><path class="cls-10" d="M103.5,64.23c15.81-6.52,23.1-28,23.1-28s-19.52-3.37-35.77,6-23.1,28-23.1,28S91.82,69.05,103.5,64.23Z"/><path class="cls-11" d="M100.84,55.21c-10.39,13.58-33,15.07-33,15.07s1.79-19.72,15.07-33,33-15.07,33-15.07S108.53,45.17,100.84,55.21Z"/><path class="cls-12" d="M52.33,37.28c-10.39-13.57-33-15.07-33-15.07s1.8,19.73,15.08,33,33,15.07,33,15.07S60,47.32,52.33,37.28Z"/></g></g></svg>