<svg xmlns="http://www.w3.org/2000/svg" xmlns:xlink="http://www.w3.org/1999/xlink" viewBox="0 0 144.97 83.53"><defs><style>.cls-1{fill:#6ab96f;}.cls-2{fill:url(#Dégradé_sans_nom_19);}.cls-3{fill:url(#Dégradé_sans_nom_19-2);}.cls-4{fill:url(#Dégradé_sans_nom_19-3);}.cls-5{fill:url(#Dégradé_sans_nom_19-4);}.cls-6{fill:url(#Dégradé_sans_nom_19-5);}.cls-7{fill:url(#Dégradé_sans_nom_19-6);}.cls-8{fill:url(#Dégradé_sans_nom_19-7);}.cls-9{fill:url(#Dégradé_sans_nom_19-8);}.cls-10{fill:url(#Dégradé_sans_nom_19-9);}.cls-11{fill:url(#Dégradé_sans_nom_19-10);}.cls-12{fill:url(#Dégradé_sans_nom_19-11);}.cls-13{fill:url(#Dégradé_sans_nom_19-12);}.cls-14{fill:url(#Dégradé_sans_nom_19-13);}</style><linearGradient id="Dégradé_sans_nom_19" x1="73.36" y1="432.52" x2="128.48" y2="432.52" gradientTransform="matrix(1, 0, 0, -1, 0, 479.52)" gradientUnits="userSpaceOnUse"><stop offset="0" stop-color="#e265a2"/><stop offset="0.13" stop-color="#d65a9d"/><stop offset="0.71" stop-color="#a72c89"/><stop offset="1" stop-color="#951b81"/></linearGradient><linearGradient id="Dégradé_sans_nom_19-2" x1="19.51" y1="52.09" x2="74.62" y2="52.09" gradientTransform="matrix(-1.03, 0.15, -0.2, -1, 103.86, 96.99)" xlink:href="#Dégradé_sans_nom_19"/><linearGradient id="Dégradé_sans_nom_19-3" x1="-27.66" y1="57.09" x2="27.46" y2="57.09" gradientTransform="matrix(0.98, 0.2, 0.2, -0.98, 91.94, 114.47)" xlink:href="#Dégradé_sans_nom_19"/><linearGradient id="Dégradé_sans_nom_19-4" x1="114.37" y1="174.72" x2="168.82" y2="174.72" gradientTransform="matrix(0.87, -0.5, -0.5, -0.87, 67.53, 290.19)" xlink:href="#Dégradé_sans_nom_19"/><linearGradient id="Dégradé_sans_nom_19-5" x1="-16.28" y1="68.21" x2="38.2" y2="68.21" gradientTransform="matrix(-0.87, 0.5, 0.5, 0.87, 18.17, 2.47)" xlink:href="#Dégradé_sans_nom_19"/><linearGradient id="Dégradé_sans_nom_19-6" x1="60.23" y1="33.26" x2="86.49" y2="33.26" gradientTransform="matrix(1, 0, 0, 1, 0, 0)" xlink:href="#Dégradé_sans_nom_19"/><linearGradient id="Dégradé_sans_nom_19-7" x1="68" y1="34.61" x2="95.55" y2="34.61" gradientTransform="matrix(1, 0, 0, 1, 0, 0)" xlink:href="#Dégradé_sans_nom_19"/><linearGradient id="Dégradé_sans_nom_19-8" x1="68" y1="34.61" x2="95.55" y2="34.61" gradientTransform="translate(163.56 69.22) rotate(180)" xlink:href="#Dégradé_sans_nom_19"/><linearGradient id="Dégradé_sans_nom_19-9" x1="53.04" y1="34.39" x2="80.59" y2="34.39" gradientTransform="translate(133.63 68.79) rotate(180)" xlink:href="#Dégradé_sans_nom_19"/><linearGradient id="Dégradé_sans_nom_19-10" x1="39.12" y1="37.56" x2="71.61" y2="37.56" gradientTransform="translate(112.52 72.47) rotate(177.14)" xlink:href="#Dégradé_sans_nom_19"/><linearGradient id="Dégradé_sans_nom_19-11" x1="71.38" y1="190.55" x2="103.97" y2="190.55" gradientTransform="translate(2.13 -153.67)" xlink:href="#Dégradé_sans_nom_19"/><linearGradient id="Dégradé_sans_nom_19-12" x1="32.72" y1="42.06" x2="75.74" y2="42.06" gradientTransform="translate(106.63 82.31) rotate(175.65)" xlink:href="#Dégradé_sans_nom_19"/><linearGradient id="Dégradé_sans_nom_19-13" x1="69.55" y1="196.52" x2="112.58" y2="196.52" gradientTransform="matrix(0.99, 0.04, -0.06, 0.98, 18.07, -153.01)" xlink:href="#Dégradé_sans_nom_19"/></defs><g id="Calque_2" data-name="Calque 2"><g id="Calque_1-2" data-name="Calque 1"><ellipse class="cls-1" cx="72.48" cy="69.27" rx="72.48" ry="14.27"/><path class="cls-2" d="M107,57.28c14.55-9.09,21.5-24.86,21.5-24.86s-18.62-6.61-33.17,2.47-22,28.55-22,28.55S92.42,66.37,107,57.28Z"/><path class="cls-3" d="M40.64,63.44C23.79,56.6,13.49,42,13.49,42s17.94-9.42,34.79-2.58S76.63,64.46,76.63,64.46,57.5,70.28,40.64,63.44Z"/><path class="cls-4" d="M107.17,69.82c16.08-6,26.05-20,26.05-20s-16.91-10.22-33-4.24S73,69.1,73,69.1,91.09,75.8,107.17,69.82Z"/><path class="cls-5" d="M101.73,56.8c16.2.57,32,10.37,32,10.37S119,81.91,102.78,81.35,71.32,68,71.32,68,85.52,56.24,101.73,56.8Z"/><path class="cls-6" d="M43.93,79.32C27.72,78.71,12,68.1,12,68.1s14.72-16,30.92-15.37S74.34,67.19,74.34,67.19,60.13,79.93,43.93,79.32Z"/><path class="cls-7" d="M86.49,33.38c0,17.49-13.13,33.14-13.13,33.14S60.23,50.87,60.23,33.38,73.36,0,73.36,0,86.49,15.89,86.49,33.38Z"/><path class="cls-8" d="M69.1,31.48C73.24,14.59,89.63,3.19,89.63,3.19s9,18.83,4.83,35.72S73.85,66,73.85,66,65,48.37,69.1,31.48Z"/><path class="cls-9" d="M69.09,30.31C65,47.2,73.93,66,73.93,66s16.39-11.4,20.53-28.29S89.71,3.19,89.71,3.19,73.23,13.41,69.09,30.31Z"/><path class="cls-10" d="M54.13,38C50,21.1,59,2.27,59,2.27s16.38,11.4,20.52,28.29-4.78,36-4.78,36S58.27,54.88,54.13,38Z"/><path class="cls-11" d="M44.43,45.55C53.17,60.28,72,65.73,72,65.73s3-20.76-5.57-35.65C58.79,16.75,38.86,9.86,38.73,9.71S35.68,30.83,44.43,45.55Z"/><path class="cls-12" d="M101.15,44.16c-8,15.15-26.52,21.52-26.52,21.52S70.42,45,78.41,29.81,105.05,8.07,105.05,8.07,109.15,29,101.15,44.16Z"/><path class="cls-13" d="M41,55.39C53.18,66.87,72.6,66.31,72.6,66.31S70.15,45.22,57.94,33.74,26.13,22.67,26.13,22.67,28.75,43.92,41,55.39Z"/><path class="cls-14" d="M104.32,55C92.42,66.66,73.23,66.71,73.23,66.71s2.15-20.83,14-32.54c8.1-8,30-10.69,31.25-11.9C118.5,22.27,116.22,43.29,104.32,55Z"/></g></g></svg>